<?xml version="1.0" encoding="UTF-8"?>
<svg width="86px" height="86px" viewBox="0 0 86 86" version="1.1" xmlns="http://www.w3.org/2000/svg" xmlns:xlink="http://www.w3.org/1999/xlink">
    <!-- Generator: Sketch 52.4 (67378) - http://www.bohemiancoding.com/sketch -->
    <title>Group 14</title>
    <desc>Created with Sketch.</desc>
    <g id="Homepage" stroke="none" stroke-width="1" fill="none" fill-rule="evenodd">
        <g id="Homepage-V2" transform="translate(-281.000000, -1954.000000)">
            <g id="Group-13" transform="translate(150.000000, 1955.000000)">
                <g id="Group-14" transform="translate(132.000000, 0.000000)">
                    <g id="box" transform="translate(18.900000, 16.800000)" fill="#262839">
                        <path d="M45.7889162,10.8734587 L23.4138712,0.07170625 C23.2155,-0.02396625 22.9845,-0.02396625 22.786225,0.07170625 L0.41108375,10.8734587 C0.16160375,10.9938675 0.00308,11.2465237 0.00308,11.5235312 L0.00308,37.7563725 C0.00308,38.03338 0.16160375,38.2860362 0.41108375,38.406445 L22.7861287,49.2081975 C22.8852662,49.2560337 22.9926812,49.28 23.1,49.28 C23.2073187,49.28 23.3146375,49.2560337 23.4138712,49.2081975 L45.7889162,38.406445 C46.0383962,38.2860362 46.19692,38.03338 46.19692,37.7563725 L46.19692,11.5236275 C46.19692,11.2464275 46.0383,10.9939637 45.7889162,10.8734587 Z M23.1,1.523445 L43.8146362,11.5235312 L37.8098875,14.4223887 C37.7718687,14.3934175 37.7317325,14.36666 37.68765,14.3453887 L17.1137313,4.41335125 L23.1,1.523445 Z M15.4834487,5.22955125 L36.1679587,15.2151037 L31.931515,17.26032 L11.2555712,7.27881 L15.4834487,5.22955125 Z M36.6519037,16.5845487 L36.6519037,24.1446012 L32.6947775,26.0549712 L32.6947775,18.4949187 L36.6519037,16.5845487 Z M44.75317,37.30342 L23.821875,47.4079375 L23.821875,22.7783325 L28.8146512,20.36804 C29.1736637,20.1946937 29.3241987,19.763205 29.1508525,19.4040962 C28.9775062,19.04518 28.5460175,18.8944525 28.1869087,19.067895 L23.1,21.5237137 L21.098385,20.5573637 C20.7392762,20.383825 20.3077875,20.5345525 20.1344412,20.893565 C19.961095,21.2525775 20.11163,21.6841625 20.4706425,21.8575087 L22.378125,22.7783325 L22.378125,47.4079375 L1.44683,37.3032275 L1.44683,12.6736225 L17.38583,20.3683287 C17.4869887,20.4172237 17.5939225,20.4403237 17.6991237,20.4403237 C17.9674687,20.4403237 18.2252262,20.2899812 18.3496775,20.0321275 C18.5230237,19.673115 18.3724887,19.24153 18.0134762,19.0681837 L2.38536375,11.5235312 L9.55647,8.06161125 L31.2410175,18.53005 C31.2441937,18.5344775 31.247755,18.5384237 31.2510275,18.542755 L31.2510275,27.2051587 C31.2510275,27.45358 31.3787512,27.6844837 31.5891537,27.816635 C31.7060012,27.8899775 31.8393075,27.9270337 31.9729987,27.9270337 C32.0800287,27.9270337 32.1873475,27.90326 32.2867737,27.8552312 L37.68765,25.247915 C37.93713,25.1275062 38.0956537,24.8749462 38.0956537,24.5978425 L38.0956537,15.8876987 L44.75317,12.6737187 L44.75317,37.30342 Z" id="Shape" fill-rule="nonzero"></path>
                        <path d="M7.4041275,34.5036037 L4.12055875,32.9184625 C3.76135375,32.7449237 3.32996125,32.8956512 3.156615,33.2546637 C2.98326875,33.6136762 3.13380375,34.0452612 3.49281625,34.2186075 L6.776385,35.8037487 C6.87754375,35.8526437 6.9844775,35.8757437 7.08967875,35.8757437 C7.35802375,35.8757437 7.61578125,35.7254012 7.7402325,35.4675475 C7.913675,35.1084387 7.76314,34.6770462 7.4041275,34.5036037 Z" id="Path"></path>
                        <path d="M10.4260887,32.5365425 L4.1250825,29.4946575 C3.76597375,29.3213112 3.334485,29.4718462 3.16113875,29.830955 C2.98788875,30.1899675 3.13842375,30.6215525 3.49743625,30.7948987 L9.7984425,33.8367837 C9.89960125,33.8855825 10.006535,33.9087787 10.1117362,33.9087787 C10.3800812,33.9087787 10.6378387,33.7584362 10.76229,33.5005825 C10.9356362,33.1413775 10.7851012,32.7097925 10.4260887,32.5365425 Z" id="Path"></path>
                    </g>
                    <circle id="Oval" stroke="#262839" stroke-width="1.5" cx="42" cy="42" r="42"></circle>
                </g>
            </g>
        </g>
    </g>
</svg>