<?xml version="1.0" encoding="UTF-8"?>
<svg width="17px" height="18px" viewBox="0 0 17 18" version="1.1" xmlns="http://www.w3.org/2000/svg" xmlns:xlink="http://www.w3.org/1999/xlink">
    <!-- Generator: Sketch 52.4 (67378) - http://www.bohemiancoding.com/sketch -->
    <title>Path</title>
    <desc>Created with Sketch.</desc>
    <g id="Homepage" stroke="none" stroke-width="1" fill="none" fill-rule="evenodd">
        <g id="Homepage-V2" transform="translate(-263.000000, -1163.000000)" fill="#262839">
            <g id="Group-11" transform="translate(180.000000, 904.000000)">
                <g id="Group-6" transform="translate(37.000000, 253.000000)">
                    <g id="Group-5">
                        <g id="arrow-pointing-to-right" transform="translate(46.000000, 6.000000)">
                            <path d="M16.5726791,7.96019918 L9.05431573,0.438978002 C8.76197875,0.146285534 8.41147371,0 8.00340737,0 C7.60294576,0 7.25652624,0.146285534 6.96394656,0.438978002 L6.0978573,1.30544159 C5.80523717,1.58275688 5.65896756,1.9293504 5.65896756,2.3453031 C5.65896756,2.76117487 5.80523717,3.1077684 6.0978573,3.38516462 L9.48167704,6.78178119 L1.35113321,6.78178119 C0.950873853,6.78178119 0.625569581,6.92616481 0.375341749,7.21505345 C0.125113916,7.50394209 0,7.852478 0,8.26058024 L0,9.73946023 C0,10.1476839 0.125154367,10.4960984 0.375341749,10.784987 C0.62552913,11.0738757 0.950873853,11.2181379 1.35113321,11.2181379 L9.48151523,11.2181379 L6.09773595,14.6034644 C5.80511582,14.8959545 5.6588462,15.2464733 5.6588462,15.6548183 C5.6588462,16.0630824 5.80511582,16.4135607 6.09773595,16.7060508 L6.96382521,17.5725144 C7.26421187,17.8575183 7.61063139,18 8.00328602,18 C8.40370718,18 8.75413132,17.8575183 9.05423483,17.5725144 L16.5725578,10.0512932 C16.8574518,9.76628936 17,9.41593247 17,8.9999393 C17,8.57637894 16.8574518,8.22962355 16.5726791,7.96019918 Z" id="Path"></path>
                        </g>
                    </g>
                </g>
            </g>
        </g>
    </g>
</svg>