<?xml version="1.0" encoding="UTF-8"?>
<svg width="86px" height="86px" viewBox="0 0 86 86" version="1.1" xmlns="http://www.w3.org/2000/svg" xmlns:xlink="http://www.w3.org/1999/xlink">
    <!-- Generator: Sketch 52.4 (67378) - http://www.bohemiancoding.com/sketch -->
    <title>Group 7</title>
    <desc>Created with Sketch.</desc>
    <g id="Homepage" stroke="none" stroke-width="1" fill="none" fill-rule="evenodd">
        <g id="Homepage-V2" transform="translate(-1044.000000, -1954.000000)">
            <g id="Group-7" transform="translate(1045.000000, 1955.000000)">
                <circle id="Oval" stroke="#262839" stroke-width="1.5" cx="42" cy="42" r="42"></circle>
                <g id="missile" transform="translate(42.000000, 42.000000) rotate(-90.000000) translate(-42.000000, -42.000000) translate(20.000000, 20.000000)" fill="#262839">
                    <path d="M8.26556725,3.44546589 C8.4082885,3.58818713 8.59569591,3.65989084 8.78301754,3.65989084 C8.97042495,3.65989084 9.15774659,3.58818713 9.30046784,3.44546589 C9.58668226,3.15925146 9.58668226,2.69669396 9.30046784,2.4105653 L7.10475634,0.214853801 C6.81854191,-0.0712748538 6.35598441,-0.0712748538 6.06985575,0.214853801 C5.7837271,0.501068226 5.7837271,0.963625731 6.06985575,1.24975439 L8.26556725,3.44546589 Z" id="Path"></path>
                    <path d="M16.2703938,19.376039 C17.4846394,20.5902846 19.2557895,21.8155088 20.4766394,21.8155088 C20.9729045,21.8155088 21.2773879,21.6149786 21.4464405,21.4466121 C22.5845224,20.3070721 20.8316413,17.7271111 19.3758674,16.2713372 L9.02454581,5.92001559 C8.47192982,5.36671345 7.50727485,5.36817154 6.95474464,5.92001559 L5.91984405,6.95568811 C5.34973099,7.52580117 5.34895906,8.45460429 5.91984405,9.02548928 L16.2703938,19.376039 Z M7.98964522,6.95491618 L18.3409669,17.3062378 C19.5925224,18.5577934 20.2446316,19.8174113 20.3405224,20.3377778 C19.7667212,20.2338246 18.5107914,19.5458635 17.3052943,18.3411384 L6.95474464,7.99058869 L7.98964522,6.95491618 Z" id="Shape" fill-rule="nonzero"></path>
                    <path d="M2.41030799,9.30072515 C2.55302924,9.44344639 2.74043665,9.5151501 2.92775828,9.5151501 C3.11516569,9.5151501 3.30248733,9.44344639 3.44520858,9.30072515 C3.731423,9.01459649 3.731423,8.55195322 3.44520858,8.26582456 L1.24949708,6.07011306 C0.963282651,5.78398441 0.500725146,5.78398441 0.214596491,6.07011306 C-0.0715321637,6.35632749 -0.0715321637,6.81888499 0.214596491,7.10501365 L2.41030799,9.30072515 Z" id="Path"></path>
                    <path d="M3.87414425,4.90930214 C4.0168655,5.05202339 4.2042729,5.1237271 4.39159454,5.1237271 C4.57900195,5.1237271 4.76632359,5.05202339 4.90904483,4.90930214 C5.19517349,4.62308772 5.19517349,4.16053021 4.90904483,3.87440156 L1.24958285,0.214853801 C0.963368421,-0.0712748538 0.500810916,-0.0712748538 0.214682261,0.214853801 C-0.0714463938,0.501068226 -0.0714463938,0.963625731 0.214682261,1.24975439 L3.87414425,4.90930214 Z" id="Path"></path>
                    <path d="M43.8982768,43.02754 C43.7899493,42.5328187 41.2267992,30.877193 38.0071657,27.6568733 L35.9380507,25.5877583 L35.9373645,25.5863002 L35.9365926,25.5855283 L16.7878441,6.43746589 L21.5291228,1.69695906 C21.6271579,1.59892398 21.7824016,1.48107602 21.9638908,1.47961793 L21.9653489,1.47961793 C22.143922,1.47961793 22.2961637,1.59523587 22.3935127,1.69189864 L23.5404288,2.83950097 C24.0761481,3.37453411 24.8849591,4.1825731 24.8849591,5.92010136 L24.8849591,12.4428226 C24.8849591,12.8467992 25.2120858,13.1746979 25.6168343,13.1746979 C26.0215828,13.1746979 26.3487096,12.8467992 26.3487096,12.4428226 L26.3487096,5.92001559 C26.3487096,3.57643665 25.1951891,2.42368811 24.5511423,1.78032749 L23.4284133,0.656826511 C23.0149162,0.243329435 22.495922,0.0156959064 21.9653489,0.0156959064 C21.9624327,0.0156959064 21.9602027,0.0156959064 21.9572865,0.0164678363 C21.4273996,0.0186978558 20.9070331,0.247789474 20.4934503,0.66197271 L15.7529435,5.40247953 L15.2354932,4.88502924 C14.3783938,4.02870175 12.986347,4.02947368 12.1300195,4.88502924 L11.6125692,5.40247953 C11.3271267,5.68860819 11.3271267,6.15193762 11.6125692,6.43738012 C11.8986979,6.72359454 12.3620273,6.72359454 12.6474698,6.43738012 L13.1649201,5.92061598 C13.4503626,5.63440156 13.9151501,5.63517349 14.2005926,5.91984405 L34.3843275,26.1037505 L27.6559298,32.8321481 C27.3704873,33.1175906 27.3704873,33.5809201 27.6559298,33.8670487 C27.7986511,34.00977 27.9860585,34.0814737 28.1733801,34.0814737 C28.3607875,34.0814737 28.5481092,34.00977 28.6908304,33.8670487 L35.42,27.139423 L36.9723509,28.6917739 C39.3451774,31.0653723 41.4772476,39.190963 42.2032904,42.203462 C39.3942378,41.5264795 32.1417856,39.6278752 29.2500507,37.4482885 L35.9374503,30.762347 C36.2228928,30.4762183 36.2228928,30.0128889 35.9374503,29.7274464 C35.6512359,29.4413177 35.1879922,29.4413177 34.9017778,29.7274464 L28.1733801,36.4550721 L5.91984405,14.2007641 C5.63440156,13.9153216 5.63440156,13.451306 5.91984405,13.1658635 L6.43729435,12.6484133 C6.72273684,12.3621988 6.72273684,11.8989552 6.43729435,11.6135127 C6.15107992,11.3272982 5.68783626,11.3272982 5.40239376,11.6135127 L4.88417154,12.130963 C4.02861598,12.9872904 4.02861598,14.3793372 4.88494347,15.2356647 L5.40239376,15.753115 L0.650136452,20.5053723 C0.232265107,20.9225575 0.0104639376,21.4532164 0.0235867446,21.9992281 C0.0367953216,22.5261988 0.271719298,23.0436491 0.683758285,23.4556881 L1.80434308,24.5769591 C2.42351657,25.1961326 3.57626511,26.3488811 5.91984405,26.3488811 L12.4425653,26.3488811 C12.8465419,26.3488811 13.1744405,26.0209825 13.1744405,25.6170058 C13.1744405,25.2130292 12.8465419,24.8851306 12.4425653,24.8851306 L5.91984405,24.8851306 C4.18300195,24.8851306 3.3742768,24.0764055 2.81437037,23.516499 L1.71874464,22.4201014 C1.57087719,22.2730058 1.49111111,22.1141598 1.487423,21.9619181 C1.48373489,21.8177388 1.55037817,21.6757037 1.68503704,21.5410448 L6.43729435,16.7881014 L27.6559298,38.007423 C30.8763353,41.2278285 42.5318752,43.7902066 43.0266823,43.8977622 C43.0786589,43.9095127 43.1313216,43.9145731 43.1826121,43.9145731 C43.3750799,43.9145731 43.5617154,43.8384094 43.7000624,43.7001481 C43.8756335,43.5238051 43.9510253,43.2705263 43.8982768,43.02754 Z" id="Path"></path>
                </g>
            </g>
        </g>
    </g>
</svg>