<?xml version="1.0" encoding="UTF-8"?>
<svg width="86px" height="86px" viewBox="0 0 86 86" version="1.1" xmlns="http://www.w3.org/2000/svg" xmlns:xlink="http://www.w3.org/1999/xlink">
    <!-- Generator: Sketch 52.4 (67378) - http://www.bohemiancoding.com/sketch -->
    <title>Group</title>
    <desc>Created with Sketch.</desc>
    <g id="Homepage" stroke="none" stroke-width="1" fill="none" fill-rule="evenodd">
        <g id="Homepage-V2" transform="translate(-678.000000, -1954.000000)">
            <g id="Group" transform="translate(679.000000, 1955.000000)">
                <circle id="Oval" stroke="#262839" stroke-width="1.5" cx="42" cy="42" r="42"></circle>
                <g id="purse" transform="translate(20.000000, 22.000000)" fill="#262839" fill-rule="nonzero">
                    <path d="M42.9387719,16.7098246 L42.2812281,16.7098246 L42.2812281,14.7357895 L42.2812281,7.71824561 C42.2812281,5.42070175 40.4120175,3.55149123 38.1145614,3.55149123 L20.0462281,3.55149123 L7.85649123,0.0686842105 C7.85298246,0.0677192982 7.84938596,0.0671929825 7.84587719,0.0662280702 C7.8422807,0.0652631579 7.83885965,0.0638596491 7.83526316,0.0629824561 C7.82789474,0.0611403509 7.82061404,0.0602631579 7.81333333,0.0586842105 C7.80201754,0.0563157895 7.79070175,0.0538596491 7.77938596,0.0520175439 C7.76912281,0.0503508772 7.75903509,0.0492982456 7.74877193,0.0480701754 C7.73684211,0.0466666667 7.725,0.0454385965 7.71315789,0.0447368421 C7.70350877,0.0442105263 7.69394737,0.044122807 7.68429825,0.0439473684 C7.67201754,0.0437719298 7.65982456,0.0436842105 7.64763158,0.0442105263 C7.63859649,0.0445614035 7.6295614,0.0454385965 7.62061404,0.0461403509 C7.60807018,0.0471929825 7.59552632,0.0483333333 7.58315789,0.0501754386 C7.57473684,0.0514035088 7.56640351,0.0529824561 7.55807018,0.0544736842 C7.54526316,0.056754386 7.53263158,0.0592105263 7.52008772,0.0622807018 C7.5122807,0.0642105263 7.50464912,0.0664035088 7.49692982,0.0685964912 C7.48412281,0.0722807018 7.47149123,0.0760526316 7.45885965,0.0804385965 C7.45175439,0.0829824561 7.44473684,0.0857017544 7.43763158,0.0885087719 C7.42491228,0.0934210526 7.4122807,0.0985964912 7.39991228,0.104298246 C7.39333333,0.107368421 7.38692982,0.110701754 7.3804386,0.113947368 C7.36807018,0.120175439 7.35587719,0.126491228 7.34394737,0.133596491 C7.3377193,0.137192982 7.33175439,0.141052632 7.32561404,0.144912281 C7.31385965,0.152280702 7.3022807,0.159824561 7.29105263,0.167982456 C7.28517544,0.172192982 7.27947368,0.176754386 7.27368421,0.18122807 C7.26289474,0.189561404 7.25219298,0.198070175 7.24192982,0.207105263 C7.23614035,0.212192982 7.23061404,0.21754386 7.225,0.222807018 C7.21535088,0.231929825 7.20578947,0.241052632 7.19666667,0.250701754 C7.19096491,0.256754386 7.18561404,0.263070175 7.18008772,0.269385965 C7.17175439,0.278947368 7.16350877,0.288596491 7.15570175,0.298684211 C7.15008772,0.305964912 7.14482456,0.313421053 7.13947368,0.320877193 C7.13254386,0.330614035 7.12570175,0.340438596 7.11938596,0.350526316 C7.11394737,0.359122807 7.10894737,0.368070175 7.10394737,0.376929825 C7.09842105,0.386666667 7.09289474,0.396491228 7.08789474,0.406578947 C7.08298246,0.416403509 7.07859649,0.426491228 7.07412281,0.436578947 C7.06973684,0.446491228 7.0654386,0.456403509 7.06157895,0.466578947 C7.05754386,0.477280702 7.05403509,0.488245614 7.0504386,0.499298246 C7.04815789,0.506403509 7.04535088,0.513070175 7.04324561,0.520263158 C7.04219298,0.523859649 7.04175439,0.527368421 7.04078947,0.530877193 C7.03982456,0.534473684 7.03842105,0.537894737 7.03754386,0.541491228 L6.28526316,3.55131579 L4.16710526,3.55131579 C1.87421053,3.55131579 0.00824561404,5.41298246 0.000701754386,7.70421053 C0.000614035088,7.70894737 0,7.71342105 0,7.71807018 L0,30.5250877 C0,30.8882456 0.295614035,31.1829825 0.657894737,31.1829825 C1.02105263,31.1829825 1.31578947,30.8882456 1.31578947,30.5250877 L1.31578947,10.7525439 C2.06175439,11.4539474 3.06473684,11.885 4.16710526,11.885 L38.1145614,11.885 C38.1153509,11.885 38.1160526,11.8849123 38.1168421,11.8849123 C39.6877193,11.8861404 40.9654386,13.1645614 40.9654386,14.7358772 L40.9654386,19.3414912 L33.7275439,19.3414912 C33.7271053,19.3414912 33.7267544,19.3415789 33.7263158,19.3415789 C33.7072807,19.3415789 33.6883333,19.3427193 33.6694737,19.344386 C33.6485088,19.3462281 33.627807,19.3492105 33.6074561,19.3529825 C33.604386,19.3535088 33.6014035,19.3537719 33.5983333,19.354386 C33.5811404,19.357807 33.5642982,19.3623684 33.5475439,19.3671053 C33.5438596,19.3681579 33.5400877,19.3688596 33.5364912,19.37 C33.5215789,19.3745614 33.5071053,19.38 33.4926316,19.3855263 C33.4871053,19.3876316 33.4814912,19.389386 33.4759649,19.3916667 C33.4638596,19.3966667 33.452193,19.4025439 33.4405263,19.4082456 C33.432807,19.4119298 33.425,19.4153509 33.4174561,19.4192982 C33.4083333,19.4241228 33.3997368,19.4296491 33.3909649,19.4349123 C33.3812281,19.4407018 33.3713158,19.4463158 33.3618421,19.4526316 C33.3554386,19.4568421 33.3495614,19.4616667 33.3434211,19.4661404 C33.332193,19.4742105 33.3208772,19.482193 33.3101754,19.4910526 C33.3055263,19.4949123 33.3012281,19.4992105 33.2967544,19.5031579 C33.2852632,19.5131579 33.2737719,19.5230702 33.2628947,19.5339474 C33.2564912,19.5403509 33.2507018,19.5473684 33.2446491,19.5540351 C33.2361404,19.5632456 33.2273684,19.5722807 33.2192982,19.5821053 C33.2057018,19.5986842 33.1929825,19.6158772 33.1810526,19.6336842 C33.1807895,19.6339474 33.1805263,19.6342982 33.1803509,19.6346491 L29.6717544,24.8978947 C29.6472807,24.9345614 29.6265789,24.9734211 29.6101754,25.0138596 C29.6039474,25.0289474 29.5989474,25.0442982 29.5939474,25.0595614 C29.5924561,25.0642105 29.5905263,25.0686842 29.5891228,25.0733333 C29.5842105,25.0895614 29.5804386,25.1059649 29.5768421,25.1222807 C29.5758772,25.1265789 29.5746491,25.1307895 29.5737719,25.1350877 C29.5708772,25.1498246 29.5689474,25.1646491 29.5671053,25.1794737 C29.5663158,25.1857895 29.5650877,25.1921053 29.5644737,25.1985088 C29.5632456,25.2107018 29.5629825,25.222807 29.5625439,25.235 C29.5621053,25.2442982 29.5613158,25.2535965 29.5613158,25.2629825 C29.5613158,25.2720175 29.5621053,25.2810526 29.5624561,25.2900877 C29.5628947,25.3025439 29.5632456,25.3150877 29.5644737,25.3275439 C29.5650877,25.3335965 29.5662281,25.3396491 29.5670175,25.3457018 C29.5689474,25.3607895 29.5708772,25.3758772 29.5738596,25.3908772 C29.5746491,25.395 29.5758772,25.3990351 29.5768421,25.4031579 C29.5804386,25.4196491 29.5842982,25.4361404 29.5892105,25.4525439 C29.590614,25.457193 29.5925439,25.4616667 29.5940351,25.4664035 C29.5990351,25.4816667 29.6040351,25.4970175 29.6102632,25.5121053 C29.6267544,25.5524561 29.6474561,25.5914035 29.6720175,25.6281579 L33.1805263,30.890614 C33.1807018,30.8908772 33.1808772,30.8910526 33.1810526,30.8913158 C33.1951754,30.9122807 33.210614,30.9322807 33.2269298,30.9514912 C33.2322807,30.957807 33.2379825,30.9636842 33.2435088,30.9696491 C33.2546491,30.9818421 33.2662281,30.9935965 33.2782456,31.0049123 C33.2853509,31.0115789 33.2923684,31.0180702 33.2995614,31.0242982 C33.3123684,31.0352632 33.325614,31.0455263 33.3392105,31.0555263 C33.3453509,31.06 33.3512281,31.0649123 33.3574561,31.0691228 C33.377193,31.0825439 33.3976316,31.0949123 33.4187719,31.1061404 C33.4241228,31.1089474 33.4296491,31.1113158 33.435,31.1139474 C33.4518421,31.1223684 33.4690351,31.1301754 33.4866667,31.1371053 C33.4935088,31.1398246 33.5003509,31.1422807 33.5072807,31.1447368 C33.5240351,31.1507018 33.5410526,31.1559649 33.5584211,31.160614 C33.5655263,31.1624561 33.5725439,31.164386 33.5797368,31.1661404 C33.5975439,31.1702632 33.615614,31.1734211 33.6339474,31.1760526 C33.640614,31.1770175 33.647193,31.1783333 33.6538596,31.1791228 C33.6764912,31.1816667 33.6994737,31.1830702 33.722807,31.1832456 C33.7246491,31.1832456 33.7264912,31.1835965 33.7284211,31.1835965 C33.7287719,31.1835965 33.7292105,31.1835088 33.7296491,31.1835088 L40.9657018,31.1835088 L40.9657018,35.7894737 C40.9657018,37.3615789 39.6867544,38.6405263 38.1148246,38.6405263 L4.16745614,38.6405263 C2.59552632,38.6405263 1.31657895,37.3615789 1.31657895,35.7894737 C1.31657895,35.7860526 1.31614035,35.7827193 1.31605263,35.7792982 L1.31605263,33.1570175 C1.31605263,32.7947368 1.02131579,32.4991228 0.658157895,32.4991228 C0.295877193,32.4991228 0.000263157895,32.7947368 0.000263157895,33.1570175 L0.000263157895,35.7894737 C0.000263157895,35.7963158 0.00105263158,35.8029825 0.00131578947,35.8097368 C0.0122807018,38.0979825 1.87675439,39.9563158 4.16745614,39.9563158 L38.1148246,39.9563158 C40.4121053,39.9563158 42.2811404,38.0874561 42.2814912,35.7901754 C42.2814912,35.7900877 42.2814912,35.79 42.2814912,35.7898246 L42.2814912,31.1835088 L42.9390351,31.1835088 C44.0271053,31.1835088 44.9123684,30.2982456 44.9123684,29.2101754 L44.9123684,18.6831579 C44.9121053,17.5950877 44.0268421,16.7098246 42.9387719,16.7098246 Z M8.14912281,1.52070175 L19.757807,4.83763158 C19.7583333,4.83780702 19.7589474,4.83789474 19.7594737,4.83807018 L27.5398246,7.06105263 L6.76438596,7.06105263 L8.14912281,1.52070175 Z M40.9653509,11.7012281 C40.2194737,11 39.2166667,10.5690351 38.1145614,10.5690351 C38.1134211,10.5690351 38.1123684,10.5692105 38.1111404,10.5692105 L4.16710526,10.5692105 C2.59508772,10.5692105 1.31614035,9.29026316 1.31614035,7.71824561 C1.31614035,6.14622807 2.59508772,4.8672807 4.16710526,4.8672807 L5.95640351,4.8672807 L5.40815789,7.06105263 L4.1672807,7.06105263 C3.80394737,7.06105263 3.50938596,7.35561404 3.50938596,7.71894737 C3.50938596,8.0822807 3.80394737,8.37684211 4.1672807,8.37684211 L5.9195614,8.37684211 C5.9204386,8.37684211 5.92140351,8.37701754 5.92236842,8.37701754 C5.92307018,8.37701754 5.92377193,8.37684211 5.92438596,8.37684211 L32.235,8.37684211 C32.2358772,8.37684211 32.2366667,8.37701754 32.2374561,8.37701754 C32.2381579,8.37701754 32.2388596,8.37684211 32.2395614,8.37684211 L37.2365789,8.37684211 C37.5999123,8.37684211 37.8944737,8.0822807 37.8944737,7.71894737 C37.8944737,7.35561404 37.5999123,7.06105263 37.2365789,7.06105263 L32.3292982,7.06105263 L24.6513158,4.8672807 L38.1144737,4.8672807 C39.6864035,4.8672807 40.9653509,6.14622807 40.9653509,7.71824561 L40.9653509,11.7012281 Z M43.5963158,29.2098246 C43.5963158,29.5723684 43.3013158,29.8673684 42.9387719,29.8673684 L34.0796491,29.8673684 L31.0095614,25.2626316 L34.0796491,20.657193 L42.9387719,20.657193 C42.9479825,20.657193 42.9569298,20.6561404 42.9660526,20.6557895 C43.1867544,20.6527193 43.3986842,20.6134211 43.5963158,20.5434211 L43.5963158,29.2098246 Z M42.9387719,19.3407018 C42.9342105,19.3407018 42.9297368,19.3413158 42.9251754,19.3414035 L42.2812281,19.3414035 L42.2812281,18.025614 L42.9387719,18.025614 C43.3013158,18.025614 43.5963158,18.320614 43.5963158,18.6831579 C43.5963158,19.0457018 43.3013158,19.3407018 42.9387719,19.3407018 Z" id="Shape"></path>
                    <path d="M36.3595614,22.8502632 C35.029386,22.8502632 33.9472807,23.9324561 33.9472807,25.2626316 C33.9472807,26.592807 35.029386,27.6749123 36.3595614,27.6749123 C37.6897368,27.6749123 38.7718421,26.592807 38.7718421,25.2626316 C38.7718421,23.9324561 37.6897368,22.8502632 36.3595614,22.8502632 Z M36.3595614,26.3591228 C35.7549123,26.3591228 35.2630702,25.8672807 35.2630702,25.2626316 C35.2630702,24.6579825 35.7549123,24.1660526 36.3595614,24.1660526 C36.9642105,24.1660526 37.4560526,24.6579825 37.4560526,25.2626316 C37.4560526,25.8672807 36.9642105,26.3591228 36.3595614,26.3591228 Z" id="Shape"></path>
                </g>
            </g>
        </g>
    </g>
</svg>